<?xml version="1.0" encoding="UTF-8"?>
<svg width="240px" height="54px" viewBox="0 0 240 54" version="1.1" xmlns="http://www.w3.org/2000/svg" xmlns:xlink="http://www.w3.org/1999/xlink">
    <title>Artboard Copy 9</title>
    <g id="Artboard-Copy-9" stroke="none" stroke-width="1" fill="none" fill-rule="evenodd">
        <g id="Logo" fill="#333333">
            <path d="M82.7949125,27.7431483 C84.3895492,27.7431483 85.7808429,27.3478566 86.9687938,26.5572734 C88.1567446,25.7666901 89.0771389,24.6914968 89.7299767,23.3316936 C90.3828146,21.9718904 90.7092335,20.4381588 90.7092335,18.7304989 C90.7092335,17.0017569 90.3774635,15.4601195 89.7139234,14.1055868 C89.0503833,12.7510541 88.1166111,11.6811314 86.9126069,10.8958187 C85.7086027,10.110506 84.2878777,9.71784961 82.650432,9.71784961 C81.002284,9.71784961 79.6190169,10.110506 78.5006308,10.8958187 L78.5006308,10.8958187 L78.3320702,11.0203356 L78.3320702,4.5 L74.4310966,4.5 L74.4310966,27.2687983 L77.8504685,27.2687983 L77.8504685,26.0147356 L78.0323753,26.1719927 C78.1137505,26.2396055 78.1968038,26.3055186 78.2815353,26.369732 L78.5407643,26.5572734 C79.6859061,27.3478566 81.1039555,27.7431483 82.7949125,27.7431483 Z M82.2009371,24.3278285 C81.1628179,24.3278285 80.3253661,24.0932888 79.6885816,23.6242094 C79.0517972,23.15513 78.5862489,22.4989459 78.2919368,21.6556571 C77.9976246,20.8123682 77.8504685,19.8373155 77.8504685,18.7304989 C77.8504685,17.6131413 77.9976246,16.6354533 78.2919368,15.797435 C78.5862489,14.9594167 79.0437705,14.3058679 79.6645016,13.8367885 C80.2852326,13.3677091 81.0879021,13.1331694 82.07251,13.1331694 C83.1106292,13.1331694 83.9668099,13.3835207 84.6410523,13.8842235 C85.3152946,14.3849262 85.8129497,15.0595573 86.1340175,15.9081167 C86.4550853,16.756676 86.6156192,17.6974701 86.6156192,18.7304989 C86.6156192,19.7740689 86.4577609,20.7201335 86.1420442,21.5686929 C85.8263275,22.4172523 85.3420503,23.0892481 84.6892125,23.5846803 C84.0363746,24.0801124 83.2069495,24.3278285 82.2009371,24.3278285 Z M109.973269,19.7898805 C110.123101,17.7449051 109.893003,15.968728 109.282974,14.4613493 C108.672945,12.9539705 107.739173,11.7865425 106.481657,10.9590654 C105.224142,10.1315882 103.696394,9.71784961 101.898415,9.71784961 C100.196755,9.71784961 98.698439,10.0973296 97.4034656,10.8562895 C96.1084921,11.6152495 95.0971286,12.6825369 94.3693749,14.0581518 C93.6416213,15.4337667 93.2777445,17.0544624 93.2777445,18.9202389 C93.2777445,20.648981 93.649648,22.177442 94.393455,23.5056219 C95.1372621,24.8338018 96.1727057,25.8721012 97.4997859,26.62052 C98.8268661,27.3689389 100.367991,27.7431483 102.123162,27.7431483 C103.792715,27.7431483 105.320462,27.3162333 106.706405,26.4624034 C108.092347,25.6085734 109.117089,24.4121574 109.780629,22.8731553 L109.780629,22.8731553 L105.959922,21.7347154 C105.585343,22.5252987 105.052906,23.1287772 104.36261,23.5451511 C103.672314,23.9615249 102.850916,24.1697119 101.898415,24.1697119 C100.421503,24.1697119 99.2977655,23.6953619 98.5272028,22.746662 C97.9621235,22.0509487 97.6042399,21.1454907 97.4535521,20.0302881 L97.4255703,19.7898805 L108.07897,19.7898805 L109.973269,19.7898805 Z M106.045237,16.9121574 L97.5188806,16.9121574 L97.5338993,16.8312462 C97.6964399,15.9755633 97.9808859,15.2607957 98.3872373,14.6869434 L98.5272028,14.5008784 C99.2977655,13.5363668 100.475014,13.054111 102.058948,13.054111 C103.460945,13.054111 104.488361,13.481026 105.141199,14.3348559 C105.590025,14.921864 105.887097,15.7455324 106.032413,16.805861 L106.045237,16.9121574 Z M119.161137,34.8583978 L128.825277,10.1921996 L124.95641,10.1921996 L120.245463,22.4126405 L115.404643,10.1921996 L111.375243,10.1921996 L118.38327,27.1502108 L115.533071,34.8583978 L119.161137,34.8583978 Z M138.22717,27.7431483 C139.960936,27.7431483 141.475306,27.361033 142.770279,26.5968025 C144.065253,25.832572 145.073941,24.7731904 145.796343,23.4186578 C146.518746,22.0641251 146.879947,20.5014055 146.879947,18.7304989 C146.879947,16.9701335 146.521421,15.4126845 145.80437,14.0581518 C145.087319,12.7036191 144.081306,11.6416022 142.786333,10.8721012 C141.491359,10.1026001 139.971639,9.71784961 138.22717,9.71784961 C136.525511,9.71784961 135.027195,10.0973296 133.732221,10.8562895 C132.437248,11.6152495 131.425884,12.6693605 130.698131,14.0186226 C129.970377,15.3678848 129.6065,16.9385102 129.6065,18.7304989 C129.6065,20.4908644 129.96235,22.0483134 130.674051,23.4028461 C131.385751,24.7573788 132.389088,25.8193956 133.684061,26.5888967 C134.979034,27.3583978 136.493404,27.7431483 138.22717,27.7431483 Z M138.22717,24.1697119 C136.739556,24.1697119 135.613143,23.676915 134.847932,22.6913212 C134.08272,21.7057273 133.700114,20.3854533 133.700114,18.7304989 C133.700114,17.6553057 133.860648,16.709241 134.181716,15.892305 C134.502784,15.0753689 134.997763,14.4376318 135.666655,13.9790935 C136.335546,13.5205552 137.189051,13.291286 138.22717,13.291286 C139.746891,13.291286 140.886682,13.7840829 141.646542,14.7696767 C142.406403,15.7552706 142.786333,17.0755446 142.786333,18.7304989 C142.786333,20.3327477 142.411754,21.6398454 141.662596,22.651792 C140.913437,23.6637386 139.768296,24.1697119 138.22717,24.1697119 Z M154.30193,27.2687983 L154.30193,18.493324 C154.30193,17.449754 154.419654,16.5932888 154.655104,15.9239283 C154.890554,15.2545678 155.203595,14.7275123 155.594227,14.3427618 C155.98486,13.9580112 156.420977,13.6865777 156.902579,13.528461 C157.38418,13.3703443 157.871133,13.291286 158.363437,13.291286 C159.283831,13.291286 160.014261,13.4862966 160.554725,13.8763176 C161.095189,14.2663387 161.501875,14.7644062 161.774782,15.37052 C162.04769,15.9766339 162.221602,16.6064652 162.296518,17.2600141 C162.371433,17.9135629 162.408891,18.5091356 162.408891,19.0467323 L162.408891,19.0467323 L162.408891,27.2687983 L166.325918,27.2687983 L166.325918,17.734364 C166.325918,17.3232607 166.291136,16.7882994 166.221571,16.12948 C166.152007,15.4706606 165.999499,14.772312 165.76405,14.0344343 C165.5286,13.2965566 165.164723,12.6008433 164.672419,11.9472944 C164.180115,11.2937456 163.516575,10.756149 162.681799,10.3345046 C161.847023,9.91286015 160.787499,9.70203795 159.503228,9.70203795 C157.876484,9.70203795 156.506595,10.0525299 155.39356,10.7535137 C154.837043,11.1040056 154.348083,11.5144501 153.926682,11.9848472 L153.836178,12.0905877 L153.836381,10.1921996 L150.384903,10.1921996 L150.384903,27.2687983 L154.30193,27.2687983 Z M177.177968,27.7431483 C178.868925,27.7431483 180.286975,27.3478566 181.432117,26.5572734 C181.608292,26.4356452 181.777755,26.3072183 181.940506,26.1719927 L182.12225,26.0137474 L182.122412,27.2687983 L185.541784,27.2687983 L185.541784,4.5 L181.640811,4.5 L181.640648,11.0203356 L181.47225,10.8958187 C180.428423,10.1628602 179.153855,9.77194893 177.648547,9.72308503 L177.322449,9.71784961 C175.685003,9.71784961 174.261603,10.110506 173.052247,10.8958187 C171.842892,11.6811314 170.90912,12.7510541 170.250931,14.1055868 C169.592742,15.4601195 169.263647,17.0017569 169.263647,18.7304989 C169.263647,20.4381588 169.590066,21.9718904 170.242904,23.3316936 C170.895742,24.6914968 171.816136,25.7666901 173.004087,26.5572734 C174.192038,27.3478566 175.583332,27.7431483 177.177968,27.7431483 Z M177.771944,24.3278285 C176.765931,24.3278285 175.936506,24.0801124 175.283669,23.5846803 C174.630831,23.0892481 174.146553,22.4172523 173.830837,21.5686929 C173.51512,20.7201335 173.357262,19.7740689 173.357262,18.7304989 C173.357262,17.6974701 173.517796,16.756676 173.838863,15.9081167 C174.159931,15.0595573 174.657586,14.3849262 175.331829,13.8842235 C176.006071,13.3835207 176.862252,13.1331694 177.900371,13.1331694 C178.884979,13.1331694 179.687648,13.3677091 180.308379,13.8367885 C180.92911,14.3058679 181.386632,14.9594167 181.680944,15.797435 C181.975256,16.6354533 182.122412,17.6131413 182.122412,18.7304989 C182.122412,19.8373155 181.975256,20.8123682 181.680944,21.6556571 C181.386632,22.4989459 180.921084,23.15513 180.284299,23.6242094 C179.647515,24.0932888 178.810063,24.3278285 177.771944,24.3278285 Z M81.992243,49.4841883 C83.929352,49.4841883 85.5667977,49.0177442 86.9045802,48.0848559 C88.2423627,47.1519677 89.1788104,45.8158819 89.7139234,44.0765987 L89.7139234,44.0765987 L85.7647895,43.2069571 C85.4651263,44.0818693 85.0183069,44.7512298 84.4243315,45.2150387 C83.8303561,45.6788475 83.0196599,45.9107519 81.992243,45.9107519 C80.5367357,45.9107519 79.4397541,45.4100492 78.7012982,44.4086437 C77.9628423,43.4072382 77.5936143,42.09487 77.5936143,40.471539 C77.5936143,39.4279691 77.7487971,38.4950808 78.0591626,37.6728742 C78.3695281,36.8506676 78.8511298,36.2050246 79.5039677,35.7359452 C80.1568055,35.2668658 80.9862306,35.0323261 81.992243,35.0323261 C82.8805306,35.0323261 83.6724978,35.287948 84.3681447,35.7991918 C85.0637915,36.3104357 85.5614466,37.0245959 85.8611099,37.9416725 L85.8611099,37.9416725 L89.7139234,36.9139143 C89.2965352,35.2273366 88.4055721,33.8965214 87.041034,32.9214687 C85.6764959,31.946416 84.009619,31.4588897 82.0404032,31.4588897 C80.2852326,31.4588897 78.7708629,31.8462755 77.497294,32.6210471 C76.2237251,33.3958187 75.2417928,34.4604708 74.551497,35.8150035 C73.8612013,37.1695362 73.5107023,38.7217147 73.5,40.471539 C73.5107023,42.18974 73.850499,43.7287421 74.5193902,45.0885453 C75.1882815,46.4483486 76.1541604,47.5209065 77.417027,48.3062193 C78.6798937,49.091532 80.2049657,49.4841883 81.992243,49.4841883 Z M99.4475998,49.5 C101.074343,49.5 102.444232,49.1495081 103.557267,48.4485242 C104.113785,48.0980323 104.602744,47.6875878 105.024146,47.2171908 L105.114141,47.1114503 L105.114446,49.0098384 L108.533818,49.0098384 L108.533818,31.9332396 L104.648898,31.9332396 L104.648898,40.708714 C104.648898,41.7417428 104.531173,42.5955727 104.295723,43.2702038 C104.060274,43.9448349 103.747233,44.4745257 103.3566,44.8592762 C102.965968,45.2440267 102.529851,45.5154603 102.048249,45.673577 C101.566647,45.8316936 101.079694,45.9107519 100.58739,45.9107519 C99.6669961,45.9107519 98.9365669,45.7157414 98.3961027,45.3257203 C97.8556386,44.9356992 97.4489528,44.4376318 97.1760451,43.8315179 C96.9031375,43.2254041 96.7292258,42.5929375 96.65431,41.9341181 C96.5793942,41.2752987 96.5419363,40.6823612 96.5419363,40.1553057 L96.5419363,40.1553057 L96.5419363,31.9332396 L92.6249092,31.9332396 L92.6249092,41.4676739 C92.6249092,41.8787772 92.6596916,42.4137386 92.7292563,43.072558 C92.798821,43.7313774 92.9513282,44.4297259 93.1867779,45.1676037 C93.4222276,45.9054814 93.7861044,46.6011947 94.2784083,47.2547435 C94.7707123,47.9082923 95.4342524,48.445889 96.2690286,48.8675334 C97.1038049,49.2891778 98.1633286,49.5 99.4475998,49.5 Z M116.913646,49.0098384 L116.913646,40.329234 C116.913646,39.6756852 116.993913,39.0669361 117.154447,38.5029866 C117.314981,37.9390372 117.563809,37.4356992 117.90093,36.9929726 C118.238051,36.550246 118.674168,36.1865777 119.209281,35.9019677 C119.744394,35.5857344 120.346396,35.4012649 121.015287,35.3485594 C121.684179,35.2958538 122.275478,35.3432888 122.789187,35.4908644 L122.789187,35.4908644 L122.789187,31.9332396 C122.275478,31.8489108 121.745717,31.8251933 121.199901,31.8620871 C120.654086,31.898981 120.121649,31.9991216 119.602589,32.1625088 C119.083529,32.325896 118.609954,32.5498946 118.181864,32.8345046 C117.678858,33.1401968 117.248092,33.5275826 116.889566,33.996662 C116.746156,34.1842937 116.614304,34.3799368 116.494011,34.583591 L116.447833,34.6676695 L116.448098,31.9332396 L113.028726,31.9332396 L113.028726,49.0098384 L116.913646,49.0098384 Z M129.729552,49.0098384 L129.729552,40.329234 C129.729552,39.6756852 129.809819,39.0669361 129.970353,38.5029866 C130.130887,37.9390372 130.379714,37.4356992 130.716835,36.9929726 C131.053957,36.550246 131.490074,36.1865777 132.025187,35.9019677 C132.5603,35.5857344 133.162302,35.4012649 133.831193,35.3485594 C134.500084,35.2958538 135.091384,35.3432888 135.605092,35.4908644 L135.605092,35.4908644 L135.605092,31.9332396 C135.091384,31.8489108 134.561622,31.8251933 134.015807,31.8620871 C133.469992,31.898981 132.937554,31.9991216 132.418495,32.1625088 C131.899435,32.325896 131.42586,32.5498946 130.99777,32.8345046 C130.494764,33.1401968 130.063998,33.5275826 129.705472,33.996662 C129.562062,34.1842937 129.43021,34.3799368 129.309916,34.583591 L129.263455,34.6676695 L129.264004,31.9332396 L125.844632,31.9332396 L125.844632,49.0098384 L129.729552,49.0098384 Z M142.850472,29.3401265 L142.850472,25.8457484 L138.981605,25.8457484 L138.981605,29.3401265 L142.850472,29.3401265 Z M142.850472,49.0098384 L142.850472,31.9332396 L138.981605,31.9332396 L138.981605,49.0098384 L142.850472,49.0098384 Z M155.190116,49.4841883 C157.127225,49.4841883 158.764671,49.0177442 160.102453,48.0848559 C161.440236,47.1519677 162.376683,45.8158819 162.911796,44.0765987 L162.911796,44.0765987 L158.962662,43.2069571 C158.662999,44.0818693 158.21618,44.7512298 157.622204,45.2150387 C157.028229,45.6788475 156.217533,45.9107519 155.190116,45.9107519 C153.734609,45.9107519 152.637627,45.4100492 151.899171,44.4086437 C151.160715,43.4072382 150.791487,42.09487 150.791487,40.471539 C150.791487,39.4279691 150.94667,38.4950808 151.257036,37.6728742 C151.567401,36.8506676 152.049003,36.2050246 152.701841,35.7359452 C153.354678,35.2668658 154.184104,35.0323261 155.190116,35.0323261 C156.078403,35.0323261 156.870371,35.287948 157.566018,35.7991918 C158.261664,36.3104357 158.75932,37.0245959 159.058983,37.9416725 L159.058983,37.9416725 L162.911796,36.9139143 C162.494408,35.2273366 161.603445,33.8965214 160.238907,32.9214687 C158.874369,31.946416 157.207492,31.4588897 155.238276,31.4588897 C153.483106,31.4588897 151.968736,31.8462755 150.695167,32.6210471 C149.421598,33.3958187 148.439666,34.4604708 147.74937,35.8150035 C147.059074,37.1695362 146.708575,38.7217147 146.697873,40.471539 C146.708575,42.18974 147.048372,43.7287421 147.717263,45.0885453 C148.386154,46.4483486 149.352033,47.5209065 150.6149,48.3062193 C151.877767,49.091532 153.402839,49.4841883 155.190116,49.4841883 Z M172.645473,49.5 C174.272216,49.5 175.642105,49.1495081 176.75514,48.4485242 C177.311658,48.0980323 177.800617,47.6875878 178.222019,47.2171908 L178.311576,47.1124385 L178.312319,49.0098384 L181.731691,49.0098384 L181.731691,31.9332396 L177.846771,31.9332396 L177.846771,40.708714 C177.846771,41.7417428 177.729046,42.5955727 177.493596,43.2702038 C177.258147,43.9448349 176.945105,44.4745257 176.554473,44.8592762 C176.163841,45.2440267 175.727723,45.5154603 175.246122,45.673577 C174.76452,45.8316936 174.277567,45.9107519 173.785263,45.9107519 C172.864869,45.9107519 172.13444,45.7157414 171.593976,45.3257203 C171.053512,44.9356992 170.646826,44.4376318 170.373918,43.8315179 C170.10101,43.2254041 169.927099,42.5929375 169.852183,41.9341181 C169.777267,41.2752987 169.739809,40.6823612 169.739809,40.1553057 L169.739809,40.1553057 L169.739809,31.9332396 L165.822782,31.9332396 L165.822782,41.4676739 C165.822782,41.8787772 165.857564,42.4137386 165.927129,43.072558 C165.996694,43.7313774 166.149201,44.4297259 166.384651,45.1676037 C166.6201,45.9054814 166.983977,46.6011947 167.476281,47.2547435 C167.968585,47.9082923 168.632125,48.445889 169.466902,48.8675334 C170.301678,49.2891778 171.361202,49.5 172.645473,49.5 Z M190.416534,49.0098384 L190.416534,25.7666901 L186.547667,25.7666901 L186.547667,49.0098384 L190.416534,49.0098384 Z M201.728761,49.5 C203.355504,49.5 204.725393,49.1495081 205.838428,48.4485242 C206.394946,48.0980323 206.883905,47.6875878 207.305307,47.2171908 L207.395301,47.1114503 L207.395607,49.0098384 L210.814979,49.0098384 L210.814979,31.9332396 L206.930059,31.9332396 L206.930059,40.708714 C206.930059,41.7417428 206.812334,42.5955727 206.576884,43.2702038 C206.341435,43.9448349 206.028393,44.4745257 205.637761,44.8592762 C205.247129,45.2440267 204.811011,45.5154603 204.32941,45.673577 C203.847808,45.8316936 203.360855,45.9107519 202.868551,45.9107519 C201.948157,45.9107519 201.217728,45.7157414 200.677264,45.3257203 C200.1368,44.9356992 199.730114,44.4376318 199.457206,43.8315179 C199.184298,43.2254041 199.010387,42.5929375 198.935471,41.9341181 C198.860555,41.2752987 198.823097,40.6823612 198.823097,40.1553057 L198.823097,40.1553057 L198.823097,31.9332396 L194.90607,31.9332396 L194.90607,41.4676739 C194.90607,41.8787772 194.940853,42.4137386 195.010417,43.072558 C195.079982,43.7313774 195.232489,44.4297259 195.467939,45.1676037 C195.703389,45.9054814 196.067265,46.6011947 196.559569,47.2547435 C197.051873,47.9082923 197.715413,48.445889 198.55019,48.8675334 C199.384966,49.2891778 200.44449,49.5 201.728761,49.5 Z M219.178754,49.0098384 L219.178754,38.4950808 C219.178754,37.4304287 219.475742,36.5660576 220.069717,35.9019677 C220.663692,35.2378777 221.452984,34.9058327 222.437592,34.9058327 C223.454307,34.9058327 224.256976,35.2378777 224.8456,35.9019677 C225.434225,36.5660576 225.728537,37.4936753 225.728537,38.6848208 L225.728537,38.6848208 L225.728537,49.0098384 L229.58135,49.0098384 L229.58135,38.4950808 C229.58135,37.746662 229.725831,37.101019 230.014792,36.5581518 C230.303753,36.0152846 230.694385,35.6041813 231.186689,35.3248419 C231.678993,35.0455025 232.235511,34.9058327 232.856242,34.9058327 C233.862254,34.9058327 234.659572,35.2352424 235.248197,35.8940618 C235.836821,36.5528812 236.131133,37.4673226 236.131133,38.6373858 L236.131133,38.6373858 L236.131133,49.0098384 L240,49.0098384 L240,37.6728742 C240,35.8281799 239.488967,34.3392481 238.466901,33.2060787 C237.444836,32.0729093 235.97595,31.5063247 234.060246,31.5063247 C232.904402,31.5063247 231.85558,31.7593113 230.913782,32.2652846 C229.971983,32.7712579 229.2255,33.474877 228.674334,34.376142 L228.772396,34.2239547 L228.673007,34.0447504 C228.299755,33.4178592 227.810458,32.8941141 227.205117,32.4735151 L226.972674,32.3206254 C226.10044,31.7777583 225.016837,31.5063247 223.721863,31.5063247 C222.544615,31.5063247 221.482415,31.7619466 220.535265,32.2731904 C219.87226,32.6310611 219.30496,33.0806131 218.833365,33.6218465 L218.696888,33.7871574 L218.697152,31.9332396 L215.27778,31.9332396 L215.27778,49.0098384 L219.178754,49.0098384 Z" id="beyondcurriculum" fill-rule="nonzero"></path>
            <g id="Glyph">
                <path d="M27,27 L27,40.5 C27,47.9558441 20.9558441,54 13.5,54 C6.04415588,54 0,47.9558441 0,40.5 C0,33.0441559 6.04415588,27 13.5,27 L27,27 Z" id="Path"></path>
                <path d="M40.5,0 C47.9558441,0 54,6.04415588 54,13.5 C54,20.9558441 47.9558441,27 40.5,27 L27,27 L27,13.5 C27,6.04415588 33.0441559,0 40.5,0 Z M40.5,3 C34.7960755,3 30.1544266,7.54814202 30.0037742,13.2157049 L30,13.5 L30,24 L40.5,24 C46.2039245,24 50.8455734,19.451858 50.9962258,13.7842951 L51,13.5 C51,7.70101013 46.2989899,3 40.5,3 Z" id="Path" fill-rule="nonzero"></path>
            </g>
        </g>
    </g>
</svg>